<svg width="150" height="40" viewBox="0 0 150 40" fill="none" xmlns="http://www.w3.org/2000/svg">
  <path d="M20 0C8.954 0 0 8.954 0 20s8.954 20 20 20 20-8.954 20-20S31.046 0 20 0zm0 36c-8.837 0-16-7.163-16-16S11.163 4 20 4s16 7.163 16 16-7.163 16-16 16z" fill="#29c2af"/>
  <path d="M20 8c-6.627 0-12 5.373-12 12s5.373 12 12 12 12-5.373 12-12S26.627 8 20 8zm0 20c-4.411 0-8-3.589-8-8s3.589-8 8-8 8 3.589 8 8-3.589 8-8 8z" fill="#29c2af"/>
  <path d="M55 12h8c4.411 0 8 3.589 8 8s-3.589 8-8 8h-8V12zm8 12c2.206 0 4-1.794 4-4s-1.794-4-4-4h-4v8h4zM80 12h12v4h-8v4h7v4h-7v4h8v4H80V12zM100 12h4l7 11V12h4v20h-4l-7-11v11h-4V12zM125 12h12v4h-8v4h7v4h-7v8h-4V12z" fill="#1C2536"/>
</svg> 